<svg width="121" height="130" viewBox="0 0 121 130" fill="none" xmlns="http://www.w3.org/2000/svg">
<path d="M112.135 65.0014C120.196 54.4994 122.547 44.4772 118.734 36.6126C114.854 28.6245 105.213 24.2251 91.58 24.2251C89.6384 24.2251 87.6266 24.3373 85.5784 24.5084C79.7368 9.49755 70.6489 0 60.2563 0C49.8637 0 40.7758 9.49474 34.9341 24.5084C32.8915 24.3345 30.8798 24.2251 28.9354 24.2251C15.3049 24.2251 5.66149 28.6245 1.78391 36.6126C-2.03195 44.4772 0.322098 54.4994 8.38309 65.0014C0.322098 75.5006 -2.03195 85.5257 1.78391 93.3902C5.66149 101.381 15.3049 105.778 28.9326 105.778C30.877 105.778 32.8915 105.666 34.9341 105.494C40.7758 120.508 49.8637 130 60.2563 130C70.6489 130 79.7368 120.505 85.5784 105.494C87.6238 105.668 89.6356 105.778 91.58 105.778C105.208 105.778 114.851 101.381 118.731 93.3902C122.55 85.5285 120.196 75.5006 112.135 65.0014ZM91.58 32.6452C101.667 32.6452 108.802 35.4313 111.161 40.2909C113.344 44.7886 111.616 51.3261 106.456 58.5285C102.074 54.0505 96.8773 49.7408 91.0356 45.7538C90.3566 41.1804 89.4363 36.8398 88.3084 32.7771C89.4139 32.7125 90.5194 32.6452 91.58 32.6452ZM70.6264 86.3562C67.1978 88.02 63.7242 89.5042 60.2563 90.8173C56.7911 89.5042 53.3148 88.02 49.8889 86.3562C45.467 84.2097 41.2892 81.8445 37.3527 79.3417C36.828 74.8104 36.5138 70.0406 36.5138 64.9986C36.5138 59.9594 36.828 55.1868 37.3527 50.6555C41.2892 48.1555 45.467 45.7903 49.8889 43.6438C53.3176 41.98 56.7911 40.4958 60.2563 39.1827C63.7242 40.4958 67.2006 41.98 70.6264 43.6438C75.0455 45.7903 79.2233 48.1527 83.157 50.6555C83.6845 55.1868 83.9987 59.9622 83.9987 65.0014C83.9987 70.0406 83.6845 74.8132 83.157 79.3445C79.2289 81.8445 75.0483 84.2125 70.6264 86.3562ZM81.3529 90.2225C80.8899 92.3156 80.3821 94.3246 79.8181 96.2409C77.4557 95.8369 75.0483 95.3403 72.5905 94.7174C73.1628 94.4452 73.7352 94.2067 74.3048 93.9346C76.7178 92.7561 79.055 91.5076 81.3529 90.2225ZM47.9249 94.7174C45.467 95.3403 43.0597 95.8369 40.6944 96.2409C40.1304 94.3246 39.6226 92.3156 39.1596 90.2197C41.4548 91.5048 43.792 92.7533 46.2106 93.9262C46.7829 94.2067 47.3553 94.4452 47.9249 94.7174ZM28.335 72.967C25.0718 70.3969 22.0809 67.7286 19.4743 65.0014C22.0809 62.2714 25.0718 59.6087 28.335 57.0358C28.1834 59.6452 28.0965 62.2966 28.0965 65.0014C28.0965 67.7062 28.1834 70.3576 28.335 72.967ZM39.1624 39.7803C39.6254 37.6872 40.1332 35.6754 40.6972 33.7591C43.0597 34.1659 45.467 34.6626 47.9249 35.2854C47.3553 35.552 46.7829 35.7905 46.2134 36.0682C43.7948 37.2467 41.4576 38.4952 39.1624 39.7803ZM72.5905 35.2882C75.0483 34.6654 77.4557 34.1659 79.8181 33.7619C80.3793 35.6782 80.8899 37.6872 81.3529 39.7803C79.0578 38.4952 76.7206 37.2439 74.3048 36.0711C73.738 35.7961 73.1628 35.5576 72.5905 35.2882ZM92.1804 57.0302C95.4407 59.6059 98.4345 62.2686 101.041 64.9986C98.4345 67.7286 95.4407 70.3913 92.1804 72.967C92.3319 70.3576 92.4189 67.7062 92.4189 64.9986C92.4189 62.2938 92.3291 59.6424 92.1804 57.0302ZM60.2563 8.41733C66.14 8.41733 72.3548 14.8369 76.959 25.6981C71.5495 26.7026 65.9408 28.2289 60.2591 30.2322C54.5774 28.2289 48.9686 26.7054 43.5591 25.6981C48.1578 14.8369 54.3754 8.41733 60.2563 8.41733ZM9.3567 40.2909C11.7135 35.4313 18.8514 32.6452 28.9354 32.6452C29.9932 32.6452 31.1015 32.7153 32.2069 32.7743C31.079 36.8398 30.1615 41.1804 29.4825 45.7538C23.6409 49.7408 18.4418 54.0505 14.0648 58.5285C8.89935 51.3232 7.171 44.7886 9.3567 40.2909ZM28.9326 97.3576C18.8514 97.3576 11.7135 94.5715 9.3567 89.7119C7.171 85.2114 8.89935 78.674 14.0648 71.4743C18.4418 75.9523 23.6409 80.262 29.4825 84.249C30.1615 88.8224 31.0818 93.1658 32.2069 97.2285C31.1015 97.2931 29.9904 97.3576 28.9326 97.3576ZM60.2563 121.585C54.3754 121.585 48.1578 115.169 43.5563 104.308C48.9658 103.303 54.5746 101.777 60.2591 99.7706C65.9408 101.777 71.5495 103.3 76.959 104.308C72.3576 115.169 66.14 121.585 60.2563 121.585ZM111.161 89.7147C108.805 94.5715 101.67 97.3604 91.5828 97.3604C90.525 97.3604 89.4167 97.2903 88.3084 97.2313C89.4335 93.1658 90.3538 88.8252 91.0356 84.2518C96.8801 80.2648 102.079 75.9523 106.459 71.4771C111.616 78.6768 113.347 85.2142 111.161 89.7147Z" fill="white" fill-opacity="0.2"/>
<path d="M60.2562 78.0539C67.4649 78.0539 73.3087 72.2101 73.3087 65.0014C73.3087 57.7927 67.4649 51.9489 60.2562 51.9489C53.0475 51.9489 47.2037 57.7927 47.2037 65.0014C47.2037 72.2101 53.0475 78.0539 60.2562 78.0539Z" fill="white" fill-opacity="0.2"/>
</svg>
